<?xml version="1.0" encoding="UTF-8" standalone="no"?>
<!-- Created with Inkscape (http://www.inkscape.org/) -->

<svg
   xmlns:dc="http://purl.org/dc/elements/1.1/"
   xmlns:cc="http://creativecommons.org/ns#"
   xmlns:rdf="http://www.w3.org/1999/02/22-rdf-syntax-ns#"
   xmlns:svg="http://www.w3.org/2000/svg"
   xmlns="http://www.w3.org/2000/svg"
   xmlns:xlink="http://www.w3.org/1999/xlink"
   xmlns:sodipodi="http://sodipodi.sourceforge.net/DTD/sodipodi-0.dtd"
   xmlns:inkscape="http://www.inkscape.org/namespaces/inkscape"
   id="svg2"
   sodipodi:docname="mageiasync.svg"
   viewBox="0 0 885.82675 885.82675"
   version="1.1"
   inkscape:version="0.48.4 r9939"
   width="100%"
   height="100%"
   inkscape:export-filename="/home/yves/Documents/git/mageiaSync/share/icons/mageiasync.png"
   inkscape:export-xdpi="3.2408426"
   inkscape:export-ydpi="3.2408426">
  <sodipodi:namedview
     id="base"
     bordercolor="#666666"
     inkscape:pageshadow="2"
     inkscape:guide-bbox="true"
     pagecolor="#ffffff"
     inkscape:window-height="964"
     inkscape:window-maximized="1"
     inkscape:zoom="0.61782945"
     inkscape:window-x="-3"
     showgrid="false"
     borderopacity="1.0"
     inkscape:current-layer="layer1"
     inkscape:cx="432.01869"
     inkscape:cy="504.24716"
     showguides="true"
     inkscape:window-y="-3"
     inkscape:window-width="1280"
     inkscape:pageopacity="0.0"
     inkscape:document-units="px"
     units="cm"
     fit-margin-top="0"
     fit-margin-left="0"
     fit-margin-right="0"
     fit-margin-bottom="0"
     width="25cm">
    <sodipodi:guide
       orientation="1,0"
       position="342.46243,148.38361"
       id="guide2824" />
    <sodipodi:guide
       orientation="0,1"
       position="300.03602,350.41412"
       id="guide2826" />
  </sodipodi:namedview>
  <defs
     id="defs4">
    <linearGradient
       id="linearGradient2947">
      <stop
         offset="0"
         style="stop-color:#ffffff;stop-opacity:0"
         id="stop2949" />
      <stop
         offset=".66150"
         style="stop-color:#ffffff"
         id="stop2951" />
      <stop
         offset="1"
         style="stop-color:#ffffff;stop-opacity:0"
         id="stop2953" />
    </linearGradient>
    <linearGradient
       inkscape:collect="always"
       x1="487.42001"
       y1="557.90997"
       gradientTransform="matrix(-0.90376776,-0.75837941,0.75837941,-0.90376776,398.84627,966.36787)"
       x2="507.26001"
       gradientUnits="userSpaceOnUse"
       xlink:href="#linearGradient2947"
       y2="486.67999"
       id="linearGradient2974" />
    <linearGradient
       inkscape:collect="always"
       x1="487.42001"
       y1="557.90997"
       gradientTransform="matrix(-0.90376776,0.75837941,-0.75837941,-0.90376776,1137.0157,408.69577)"
       x2="507.26001"
       gradientUnits="userSpaceOnUse"
       xlink:href="#linearGradient2947"
       y2="486.67999"
       id="linearGradient2979" />
    <linearGradient
       inkscape:collect="always"
       x1="487.42001"
       y1="557.90997"
       gradientTransform="matrix(0.90376776,0.75837941,-0.75837941,0.90376776,472.35157,-471.01137)"
       x2="507.26001"
       gradientUnits="userSpaceOnUse"
       xlink:href="#linearGradient2947"
       y2="486.67999"
       id="linearGradient2983" />
    <linearGradient
       inkscape:collect="always"
       x1="487.42001"
       y1="557.90997"
       gradientTransform="matrix(0.90376776,-0.75837941,0.75837941,0.90376776,-265.80939,86.694886)"
       x2="507.26001"
       gradientUnits="userSpaceOnUse"
       xlink:href="#linearGradient2947"
       y2="486.67999"
       id="linearGradient2987" />
  </defs>
  <g
     transform="translate(-25.233596,48.732985)"
     inkscape:groupmode="layer"
     inkscape:label="Layer 1"
     id="layer1">
    <path
       d="m 61.782496,263.77555 c -7.094009,0 -13.059609,5.49983 -13.059609,12.03997 v 60.58635 c -0.01349,0.31073 -0.421975,0.4723 -0.421975,0.78303 v 459.87256 c 0,10.9872 9.571923,19.81185 21.486952,19.81185 H 572.39496 c 11.91771,0 21.48965,-8.82465 21.48965,-19.81185 V 337.1849 c 0,-10.98724 -9.57194,-19.81181 -21.48965,-19.81181 h -198.4355 v -41.55757 c 0,-6.54014 -5.95886,-12.03997 -13.05016,-12.03997 H 61.779806 z"
       style="fill:#000080;fill-rule:evenodd;stroke:#333333;stroke-width:40.45185852;stroke-linejoin:round"
       id="path938"
       inkscape:connector-curvature="0" />
    <path
       d="m 436.02156,-51.56408 c -165.04328,0 -298.83677,133.793491 -298.83677,298.83677 0,165.04327 133.79349,298.83676 298.83677,298.83676 165.04328,0 298.83677,-133.79349 298.83677,-298.83676 0,-165.043279 -133.79349,-298.83677 -298.83677,-298.83677 z m 0,208.73321 c 49.76913,0 90.10355,40.33528 90.10355,90.10356 0,49.76913 -40.33527,90.10355 -90.10355,90.10355 -49.76913,0 -90.12917,-40.33528 -90.12917,-90.10355 0,-49.76913 40.3626,-90.10356 90.12917,-90.10356 z"
       style="fill:#000000"
       id="path2816"
       inkscape:connector-curvature="0" />
    <path
       d="M 432.36721,-34.299853 C 278.52605,-32.353145 154.41487,92.970458 154.41487,247.27269 c 0.004,155.51465 126.09204,281.59815 281.60669,281.59815 155.51465,0 281.57254,-126.0835 281.57254,-281.59815 0,-155.514655 -126.05789,-281.572543 -281.57254,-281.572543 -1.21498,0 -2.44406,-0.01537 -3.65537,0 z m 3.65537,191.468983 c 49.76913,0 90.10356,40.33528 90.10356,90.10356 0,49.76913 -40.33528,90.10355 -90.10356,90.10355 -49.76912,0 -90.12916,-40.33528 -90.12916,-90.10355 0,-49.76913 40.3626,-90.10356 90.12916,-90.10356 z"
       style="fill:#808080"
       id="path2818"
       inkscape:connector-curvature="0" />
    <path
       d="m 157.38872,296.75152 c 8.61162,48.83676 29.91612,94.55195 61.79261,132.54691 L 366.88354,305.36655 c -0.0922,-0.10899 -0.1825,-0.21757 -0.27442,-0.32702 -10.42001,-12.41795 -16.89879,-26.83042 -19.60711,-41.71419 l -189.60765,33.42702 z"
       style="fill:url(#linearGradient2979)"
       inkscape:transform-center-y="98.610193"
       inkscape:transform-center-x="173.46692"
       id="path2977"
       inkscape:connector-curvature="0" />
    <path
       d="m 532.22138,513.16057 c 46.59293,-16.95686 87.91778,-45.87572 119.79939,-83.86214 L 504.31857,305.36655 c -0.0913,0.10978 -0.18257,0.21751 -0.2744,0.32704 -10.42001,12.41795 -23.48857,21.30109 -37.67563,26.55293 l 65.84654,180.92432 z"
       inkscape:transform-center-y="161.56584"
       style="fill:url(#linearGradient2983)"
       inkscape:transform-center-x="-123.59545"
       id="path2981"
       inkscape:connector-curvature="0" />
    <path
       d="M 713.81168,198.64768 C 705.19664,149.80921 683.89385,104.08719 652.02077,66.100764 L 504.31857,190.03264 c 0.0922,0.10901 0.18249,0.21757 0.27442,0.32702 10.42001,12.41795 16.89879,26.83042 19.6071,41.7142 l 189.60766,-33.42959 z"
       style="fill:url(#linearGradient2987)"
       inkscape:transform-center-y="-98.610189"
       inkscape:transform-center-x="-173.46692"
       id="path2985"
       inkscape:connector-curvature="0" />
    <path
       d="M 338.97645,-17.769911 C 292.3767,-0.80878964 251.05014,28.110925 219.17706,66.09991 l 147.69367,123.93188 c 0.0913,-0.10978 0.18257,-0.21751 0.2744,-0.32704 10.42001,-12.41795 23.48857,-21.30109 37.67563,-26.55293 L 338.97422,-17.772498 z"
       inkscape:transform-center-y="-161.56584"
       style="fill:url(#linearGradient2974)"
       inkscape:transform-center-x="123.59545"
       id="path2943"
       inkscape:connector-curvature="0" />
    <path
       d="m 436.02156,141.63816 c -58.34318,0 -105.63453,47.29049 -105.63453,105.63453 0,58.34318 47.29049,105.63452 105.63453,105.63452 58.34318,0 105.63453,-47.29049 105.63453,-105.63452 0,-58.34318 -47.29049,-105.63453 -105.63453,-105.63453 z m 0,15.52927 c 49.76913,0 90.10355,40.33528 90.10355,90.10355 0,49.76913 -40.33527,90.10355 -90.10355,90.10355 -49.76913,0 -90.12917,-40.33528 -90.12917,-90.10355 0,-49.76913 40.3626,-90.10355 90.12917,-90.10355 z"
       style="fill:#000000"
       id="path2820"
       inkscape:connector-curvature="0" />
    <path
       d="M 432.79412,-1.5388052 C 296.85755,0.18590988 187.18445,110.92628 187.18445,247.27269 c 0,137.41368 111.42343,248.8371 248.83711,248.8371 137.41368,0 248.81149,-111.42342 248.81149,-248.8371 0,-137.41369 -111.38927,-248.8114952 -248.81149,-248.8114952 -1.07359,0 -2.1582,-0.013576 -3.22846,0 z m 3.22846,144.3979252 c 57.67294,0 104.40503,46.73295 104.40503,104.40503 0,57.67293 -46.73294,104.43064 -104.40503,104.43064 -57.67293,0 -104.43064,-46.76027 -104.43064,-104.43064 0,-57.67293 46.76027,-104.40503 104.43064,-104.40503 z"
       style="opacity:0.2;fill:#999999"
       id="path2865"
       inkscape:connector-curvature="0" />
    <path
       d="M 433.27226,36.430541 C 318.07496,37.88972 225.1538,131.72532 225.1538,247.27269 c 0,116.45242 94.4068,210.86776 210.86776,210.86776 116.45242,0 210.84215,-94.40681 210.84215,-210.86776 0,-116.45242 -94.38119,-210.842149 -210.84215,-210.842149 -0.90983,0 -1.84118,-0.01153 -2.74827,0 z m 2.74828,106.437119 c 57.67293,0 104.40502,46.73295 104.40502,104.40503 0,57.67293 -46.73294,104.43064 -104.40502,104.43064 -57.67294,0 -104.43065,-46.76027 -104.43065,-104.43064 0,-57.67294 46.76027,-104.40503 104.43065,-104.40503 z"
       style="opacity:0.2;fill:#999999"
       id="path2867"
       inkscape:connector-curvature="0" />
    <path
       d="m 433.91263,84.722564 c -88.81429,1.124992 -160.46681,73.466026 -160.46681,162.550126 0,89.7791 72.79151,162.57574 162.57574,162.57574 89.7791,0 162.55012,-72.79152 162.55012,-162.57574 0,-89.7791 -72.76419,-162.550126 -162.55012,-162.550126 -0.7014,0 -1.40855,-0.0089 -2.10791,0 z m 2.10791,58.139976 c 57.67293,0 104.40502,46.73294 104.40502,104.40502 0,57.67294 -46.73294,104.43065 -104.40502,104.43065 -57.67294,0 -104.43065,-46.76027 -104.43065,-104.43065 0,-57.67293 46.76027,-104.40502 104.43065,-104.40502 z"
       style="opacity:0.2;fill:#999999"
       id="path2869"
       inkscape:connector-curvature="0" />
    <path
       d="m 434.41638,124.39955 c -67.13581,0.85382 -121.29357,55.53241 -121.29357,122.87314 0,67.8701 55.02694,122.89875 122.89875,122.89875 67.8701,0 122.87314,-55.02695 122.87314,-122.89875 0,-67.8701 -55.00048,-122.87314 -122.87314,-122.87314 -0.53022,0 -1.07223,-0.007 -1.60091,0 z m 1.60091,18.46384 c 57.67294,0 104.40503,46.73295 104.40503,104.40503 0,57.67293 -46.73295,104.43064 -104.40503,104.43064 -57.67293,0 -104.43064,-46.76027 -104.43064,-104.43064 0,-57.67294 46.76027,-104.40503 104.43064,-104.40503 z"
       style="opacity:0.2;fill:#999999"
       id="path2871"
       inkscape:connector-curvature="0" />
    <rect
       sodipodi:fill-cmyk="(0 0 0 0.5)"
       height="468.8317"
       x="344.01242"
       y="400.31091"
       sodipodi:stroke-cmyk="(0 0 0 0.8)"
       width="546.55957"
       transform="matrix(1,0,-0.34649668,0.9380512,0,0)"
       rx="21.541813"
       style="fill:#7f7f7f;fill-rule:evenodd;stroke:#333333;stroke-width:44.50595093;stroke-linejoin:round"
       id="rect922" />
    <path
       d="M 634.48146,533.55354 352.95299,705.12989 206.27471,537.65177 634.48146,533.55354 z"
       style="fill:#b3b3b3;fill-rule:evenodd;stroke:#333333;stroke-width:26.53202248;stroke-linecap:round;stroke-linejoin:round"
       sodipodi:nodetypes="cccc"
       id="path834"
       inkscape:connector-curvature="0" />
    <path
       style="fill:#dbe2e3"
       d="m 68.839051,522.24577 c -0.06001,-86.71564 0.30195,-175.48968 0.804347,-197.27566 l 0.913449,-39.61087 34.137083,0 34.13708,0 1.70666,10.71025 c 4.31598,27.08522 14.32063,58.00641 26.95786,83.31807 l 7.27191,14.56527 -52.30856,141.5969 C 93.689162,613.42803 69.879819,677.76851 69.549229,678.52859 69.218638,679.28867 68.899057,608.9614 68.839051,522.24577 z"
       id="path3335"
       inkscape:connector-curvature="0" />
    <path
       style="fill:#2383c2"
       d="m 70.119064,492.53899 c 0.0039,-99.12727 0.40867,-186.29479 0.899416,-193.70557 l 0.892266,-13.47418 32.932424,0 32.93242,0 0.667,3.10943 c 0.36684,1.71018 1.67277,8.39544 2.90205,14.85614 4.76392,25.03737 12.85088,49.20709 24.99089,74.69095 l 7.60181,15.95741 -51.28967,138.77558 c -28.209324,76.32657 -51.570046,139.05594 -51.912717,139.39861 -0.342671,0.34267 -0.619821,-80.4811 -0.615889,-179.60837 z"
       id="path3337"
       inkscape:connector-curvature="0" />
    <path
       inkscape:connector-curvature="0"
       id="path3399"
       d="m 296.08386,618.8305 -59.01828,-67.44279 23.97103,-0.29091 c 99.68387,-1.20978 320.87458,-3.15282 321.20578,-2.82163 0.50612,0.50613 -223.20849,137.00109 -225.49411,137.58069 -0.90538,0.22959 -28.20437,-29.93183 -60.66442,-67.02536 z"
       style="fill:#3494d3" />
  </g>
  <metadata
     id="metadata3167">
    <rdf:RDF>
      <cc:Work>
        <dc:format>image/svg+xml</dc:format>
        <dc:type
           rdf:resource="http://purl.org/dc/dcmitype/StillImage" />
        <cc:license
           rdf:resource="http://creativecommons.org/licenses/publicdomain/" />
        <dc:publisher>
          <cc:Agent
             rdf:about="http://openclipart.org/">
            <dc:title>Openclipart</dc:title>
          </cc:Agent>
        </dc:publisher>
        <dc:title></dc:title>
        <dc:date>2010-09-16T19:45:42</dc:date>
        <dc:description />
        <dc:source>https://openclipart.org/detail/85111/optical-disc-schema-by-sheikh_tuhin</dc:source>
        <dc:creator>
          <cc:Agent>
            <dc:title>sheikh_tuhin</dc:title>
          </cc:Agent>
        </dc:creator>
        <dc:subject>
          <rdf:Bag>
            <rdf:li>CD</rdf:li>
            <rdf:li>DVD</rdf:li>
            <rdf:li>IT</rdf:li>
            <rdf:li>backup</rdf:li>
            <rdf:li>computer</rdf:li>
            <rdf:li>disk</rdf:li>
            <rdf:li>download</rdf:li>
            <rdf:li>memory</rdf:li>
            <rdf:li>optical disc</rdf:li>
            <rdf:li>save</rdf:li>
            <rdf:li>storage</rdf:li>
          </rdf:Bag>
        </dc:subject>
      </cc:Work>
      <cc:License
         rdf:about="http://creativecommons.org/licenses/publicdomain/">
        <cc:permits
           rdf:resource="http://creativecommons.org/ns#Reproduction" />
        <cc:permits
           rdf:resource="http://creativecommons.org/ns#Distribution" />
        <cc:permits
           rdf:resource="http://creativecommons.org/ns#DerivativeWorks" />
      </cc:License>
    </rdf:RDF>
  </metadata>
</svg>
